<?xml version="1.0" standalone="no"?>
<!DOCTYPE svg PUBLIC "-//W3C//DTD SVG 20010904//EN"
 "http://www.w3.org/TR/2001/REC-SVG-20010904/DTD/svg10.dtd">
<svg version="1.0" xmlns="http://www.w3.org/2000/svg"
 width="225.000000pt" height="225.000000pt" viewBox="0 0 225.000000 225.000000"
 preserveAspectRatio="xMidYMid meet">

<g transform="translate(0.000000,225.000000) scale(0.100000,-0.100000)"
fill="#000000" stroke="none">
<path d="M790 1700 c0 -33 -2 -60 -5 -60 -3 0 -17 7 -30 16 -34 23 -45 10 -45
-52 0 -47 -3 -54 -17 -52 -17 3 -18 -14 -18 -231 l0 -235 65 -16 c162 -42 150
-35 150 -85 0 -46 7 -54 28 -33 8 8 15 8 27 -2 13 -11 15 -8 15 24 0 20 2 36
5 36 3 0 43 -9 88 -20 l82 -20 220 57 220 58 0 235 c0 218 -1 235 -17 232 -15
-2 -18 5 -18 52 0 62 -11 75 -45 52 -13 -9 -27 -16 -30 -16 -3 0 -5 27 -5 60
0 41 -4 60 -12 60 -7 0 -83 -73 -168 -161 l-155 -162 -154 162 c-84 88 -160
161 -167 161 -10 0 -14 -16 -14 -60z"/>
<path d="M830 755 l0 -86 58 3 c54 3 57 4 60 31 2 16 -2 34 -8 42 -7 9 -8 15
0 20 15 9 12 41 -6 59 -9 10 -33 16 -60 16 l-44 0 0 -85z m88 33 c-2 -17 -11
-24 -30 -26 -24 -3 -28 0 -28 22 0 22 4 26 31 26 26 0 30 -3 27 -22z m5 -60
c8 -24 -5 -38 -34 -38 -24 0 -29 4 -29 25 0 21 5 25 29 25 16 0 31 -6 34 -12z"/>
<path d="M1000 820 c-23 -23 -28 -106 -7 -133 20 -27 69 -32 97 -9 19 16 24
29 24 70 0 36 -6 57 -19 72 -23 26 -69 26 -95 0z m78 -22 c16 -16 15 -70 -1
-92 -8 -11 -23 -17 -38 -14 -21 3 -24 9 -27 47 -2 24 -1 50 2 57 7 17 48 18
64 2z"/>
<path d="M1166 827 c-12 -9 -20 -31 -24 -65 -4 -44 -1 -54 21 -76 33 -33 61
-33 94 0 22 22 25 32 21 76 -6 57 -25 78 -68 78 -14 0 -34 -6 -44 -13z m80
-41 c9 -37 1 -78 -18 -90 -38 -24 -69 29 -54 90 5 19 13 24 36 24 23 0 31 -5
36 -24z"/>
<path d="M1310 755 c0 -69 3 -85 15 -85 10 0 15 11 15 35 0 22 5 35 13 35 7 0
21 -16 30 -35 9 -19 24 -35 32 -35 13 0 12 6 -5 39 -20 40 -20 40 0 85 16 38
17 46 5 46 -9 0 -22 -18 -31 -40 -9 -22 -22 -40 -30 -40 -10 0 -14 12 -14 40
0 29 -4 40 -15 40 -12 0 -15 -16 -15 -85z"/>
<path d="M1069 613 c-13 -16 -12 -17 4 -4 9 7 17 15 17 17 0 8 -8 3 -21 -13z"/>
<path d="M1134 614 c19 -18 21 -85 4 -102 -16 -16 -50 -15 -68 1 -12 10 -12 9
-1 -5 17 -22 54 -23 75 -2 27 27 15 124 -15 124 -6 0 -3 -7 5 -16z"/>
<path d="M1273 619 c21 -12 22 -37 3 -58 -11 -12 -12 -21 -5 -31 9 -13 10 -12
6 2 -3 9 1 22 9 28 25 21 10 71 -20 70 -6 0 -3 -5 7 -11z"/>
<path d="M842 574 c10 -10 20 -16 22 -13 3 3 -5 11 -17 18 -21 13 -21 12 -5
-5z"/>
<path d="M1052 560 c0 -14 2 -19 5 -12 2 6 2 18 0 25 -3 6 -5 1 -5 -13z"/>
<path d="M843 493 c9 -2 23 -2 30 0 6 3 -1 5 -18 5 -16 0 -22 -2 -12 -5z"/>
<path d="M1368 493 c12 -2 30 -2 40 0 9 3 -1 5 -23 4 -22 0 -30 -2 -17 -4z"/>
</g>
</svg>
